{
	"asset":{
		"generator":"Khronos glTF Blender I/O v4.1.63",
		"version":"2.0"
	},
	"scene":0,
	"scenes":[
		{
			"name":"Scene",
			"nodes":[
				0
			]
		}
	],
	"nodes":[
		{
			"mesh":0,
			"name":"house_type02"
		}
	],
	"materials":[
		{
			"name":"border.019",
			"pbrMetallicRoughness":{
				"baseColorFactor":[
					0.5607843399047852,
					0.5686274766921997,
					0.6000000238418579,
					1
				]
			}
		},
		{
			"name":"roof.017",
			"pbrMetallicRoughness":{
				"baseColorFactor":[
					0.33725491166114807,
					0.7372549176216125,
					0.6000000238418579,
					1
				]
			}
		},
		{
			"name":"window.017",
			"pbrMetallicRoughness":{
				"baseColorFactor":[
					0.7372549176216125,
					0.886274516582489,
					1,
					1
				]
			}
		},
		{
			"name":"_defaultMat.019",
			"pbrMetallicRoughness":{
				"baseColorFactor":[
					0.9528301954269409,
					0.37477976083755493,
					0.2921413481235504,
					1
				]
			}
		},
		{
			"name":"door.017",
			"pbrMetallicRoughness":{
				"baseColorFactor":[
					0.38823530077934265,
					0.4000000059604645,
					0.4470588266849518,
					1
				]
			}
		}
	],
	"meshes":[
		{
			"name":"Mesh house_type02",
			"primitives":[
				{
					"attributes":{
						"POSITION":0,
						"NORMAL":1,
						"TEXCOORD_0":2
					},
					"indices":3,
					"material":0
				},
				{
					"attributes":{
						"POSITION":4,
						"NORMAL":5,
						"TEXCOORD_0":6
					},
					"indices":7,
					"material":1
				},
				{
					"attributes":{
						"POSITION":8,
						"NORMAL":9,
						"TEXCOORD_0":10
					},
					"indices":11,
					"material":2
				},
				{
					"attributes":{
						"POSITION":12,
						"NORMAL":13,
						"TEXCOORD_0":14
					},
					"indices":15,
					"material":3
				},
				{
					"attributes":{
						"POSITION":16,
						"NORMAL":17,
						"TEXCOORD_0":18
					},
					"indices":19,
					"material":4
				}
			]
		}
	],
	"accessors":[
		{
			"bufferView":0,
			"componentType":5126,
			"count":644,
			"max":[
				0.6039999723434448,
				0.9976196885108948,
				0.6550543308258057
			],
			"min":[
				-0.5960000157356262,
				0,
				-0.6449456810951233
			],
			"type":"VEC3"
		},
		{
			"bufferView":1,
			"componentType":5126,
			"count":644,
			"type":"VEC3"
		},
		{
			"bufferView":2,
			"componentType":5126,
			"count":644,
			"type":"VEC2"
		},
		{
			"bufferView":3,
			"componentType":5123,
			"count":1356,
			"type":"SCALAR"
		},
		{
			"bufferView":4,
			"componentType":5126,
			"count":187,
			"max":[
				0.6539999842643738,
				1.1375000476837158,
				0.7029456496238708
			],
			"min":[
				-0.6539999842643738,
				0.32563260197639465,
				-0.7029456496238708
			],
			"type":"VEC3"
		},
		{
			"bufferView":5,
			"componentType":5126,
			"count":187,
			"type":"VEC3"
		},
		{
			"bufferView":6,
			"componentType":5126,
			"count":187,
			"type":"VEC2"
		},
		{
			"bufferView":7,
			"componentType":5123,
			"count":369,
			"type":"SCALAR"
		},
		{
			"bufferView":8,
			"componentType":5126,
			"count":75,
			"max":[
				0.5839999914169312,
				0.9726795554161072,
				0.5350543260574341
			],
			"min":[
				-0.5760000348091125,
				0.05000000074505806,
				-0.6249456405639648
			],
			"type":"VEC3"
		},
		{
			"bufferView":9,
			"componentType":5126,
			"count":75,
			"type":"VEC3"
		},
		{
			"bufferView":10,
			"componentType":5126,
			"count":75,
			"type":"VEC2"
		},
		{
			"bufferView":11,
			"componentType":5123,
			"count":111,
			"type":"SCALAR"
		},
		{
			"bufferView":12,
			"componentType":5126,
			"count":287,
			"max":[
				0.6539999842643738,
				1.1375000476837158,
				0.5550543665885925
			],
			"min":[
				-0.5960000157356262,
				0.05000000074505806,
				-0.6449456810951233
			],
			"type":"VEC3"
		},
		{
			"bufferView":13,
			"componentType":5126,
			"count":287,
			"type":"VEC3"
		},
		{
			"bufferView":14,
			"componentType":5126,
			"count":287,
			"type":"VEC2"
		},
		{
			"bufferView":15,
			"componentType":5123,
			"count":408,
			"type":"SCALAR"
		},
		{
			"bufferView":16,
			"componentType":5126,
			"count":20,
			"max":[
				0.5339999794960022,
				0.26999998092651367,
				0.5350543260574341
			],
			"min":[
				-0.06599999964237213,
				1.804778527019556e-16,
				-0.6249456405639648
			],
			"type":"VEC3"
		},
		{
			"bufferView":17,
			"componentType":5126,
			"count":20,
			"type":"VEC3"
		},
		{
			"bufferView":18,
			"componentType":5126,
			"count":20,
			"type":"VEC2"
		},
		{
			"bufferView":19,
			"componentType":5123,
			"count":54,
			"type":"SCALAR"
		}
	],
	"bufferViews":[
		{
			"buffer":0,
			"byteLength":7728,
			"byteOffset":0,
			"target":34962
		},
		{
			"buffer":0,
			"byteLength":7728,
			"byteOffset":7728,
			"target":34962
		},
		{
			"buffer":0,
			"byteLength":5152,
			"byteOffset":15456,
			"target":34962
		},
		{
			"buffer":0,
			"byteLength":2712,
			"byteOffset":20608,
			"target":34963
		},
		{
			"buffer":0,
			"byteLength":2244,
			"byteOffset":23320,
			"target":34962
		},
		{
			"buffer":0,
			"byteLength":2244,
			"byteOffset":25564,
			"target":34962
		},
		{
			"buffer":0,
			"byteLength":1496,
			"byteOffset":27808,
			"target":34962
		},
		{
			"buffer":0,
			"byteLength":738,
			"byteOffset":29304,
			"target":34963
		},
		{
			"buffer":0,
			"byteLength":900,
			"byteOffset":30044,
			"target":34962
		},
		{
			"buffer":0,
			"byteLength":900,
			"byteOffset":30944,
			"target":34962
		},
		{
			"buffer":0,
			"byteLength":600,
			"byteOffset":31844,
			"target":34962
		},
		{
			"buffer":0,
			"byteLength":222,
			"byteOffset":32444,
			"target":34963
		},
		{
			"buffer":0,
			"byteLength":3444,
			"byteOffset":32668,
			"target":34962
		},
		{
			"buffer":0,
			"byteLength":3444,
			"byteOffset":36112,
			"target":34962
		},
		{
			"buffer":0,
			"byteLength":2296,
			"byteOffset":39556,
			"target":34962
		},
		{
			"buffer":0,
			"byteLength":816,
			"byteOffset":41852,
			"target":34963
		},
		{
			"buffer":0,
			"byteLength":240,
			"byteOffset":42668,
			"target":34962
		},
		{
			"buffer":0,
			"byteLength":240,
			"byteOffset":42908,
			"target":34962
		},
		{
			"buffer":0,
			"byteLength":160,
			"byteOffset":43148,
			"target":34962
		},
		{
			"buffer":0,
			"byteLength":108,
			"byteOffset":43308,
			"target":34963
		}
	],
	"buffers":[
		{
			"byteLength":43416,
			"uri":"house_type02.bin"
		}
	]
}
