{
	"asset":{
		"generator":"Khronos glTF Blender I/O v4.1.63",
		"version":"2.0"
	},
	"scene":0,
	"scenes":[
		{
			"name":"Scene",
			"nodes":[
				0
			]
		}
	],
	"nodes":[
		{
			"mesh":0,
			"name":"house_type09"
		}
	],
	"materials":[
		{
			"name":"border.016",
			"pbrMetallicRoughness":{
				"baseColorFactor":[
					0.5607843399047852,
					0.5686274766921997,
					0.6000000238418579,
					1
				]
			}
		},
		{
			"name":"window.014",
			"pbrMetallicRoughness":{
				"baseColorFactor":[
					0.7372549176216125,
					0.886274516582489,
					1,
					1
				]
			}
		},
		{
			"name":"roof.014",
			"pbrMetallicRoughness":{
				"baseColorFactor":[
					0.33725491166114807,
					0.7372549176216125,
					0.6000000238418579,
					1
				]
			}
		},
		{
			"name":"_defaultMat.016",
			"pbrMetallicRoughness":{
				"baseColorFactor":[
					0.9528301954269409,
					0.37477976083755493,
					0.2921413481235504,
					1
				]
			}
		},
		{
			"name":"door.014",
			"pbrMetallicRoughness":{
				"baseColorFactor":[
					0.38823530077934265,
					0.4000000059604645,
					0.4470588266849518,
					1
				]
			}
		}
	],
	"meshes":[
		{
			"name":"Mesh house_type09",
			"primitives":[
				{
					"attributes":{
						"POSITION":0,
						"NORMAL":1,
						"TEXCOORD_0":2
					},
					"indices":3,
					"material":0
				},
				{
					"attributes":{
						"POSITION":4,
						"NORMAL":5,
						"TEXCOORD_0":6
					},
					"indices":7,
					"material":1
				},
				{
					"attributes":{
						"POSITION":8,
						"NORMAL":9,
						"TEXCOORD_0":10
					},
					"indices":11,
					"material":2
				},
				{
					"attributes":{
						"POSITION":12,
						"NORMAL":13,
						"TEXCOORD_0":14
					},
					"indices":15,
					"material":3
				},
				{
					"attributes":{
						"POSITION":16,
						"NORMAL":17,
						"TEXCOORD_0":18
					},
					"indices":19,
					"material":4
				}
			]
		}
	],
	"accessors":[
		{
			"bufferView":0,
			"componentType":5126,
			"count":300,
			"max":[
				0.6000000238418579,
				0.5699999928474426,
				0.4100000262260437
			],
			"min":[
				-0.6000000238418579,
				0,
				-0.4000000059604645
			],
			"type":"VEC3"
		},
		{
			"bufferView":1,
			"componentType":5126,
			"count":300,
			"type":"VEC3"
		},
		{
			"bufferView":2,
			"componentType":5126,
			"count":300,
			"type":"VEC2"
		},
		{
			"bufferView":3,
			"componentType":5123,
			"count":678,
			"type":"SCALAR"
		},
		{
			"bufferView":4,
			"componentType":5126,
			"count":44,
			"max":[
				0.5,
				0.5199999809265137,
				0.3799999952316284
			],
			"min":[
				-0.5,
				0.15000000596046448,
				-0.3799999952316284
			],
			"type":"VEC3"
		},
		{
			"bufferView":5,
			"componentType":5126,
			"count":44,
			"type":"VEC3"
		},
		{
			"bufferView":6,
			"componentType":5126,
			"count":44,
			"type":"VEC2"
		},
		{
			"bufferView":7,
			"componentType":5123,
			"count":66,
			"type":"SCALAR"
		},
		{
			"bufferView":8,
			"componentType":5126,
			"count":140,
			"max":[
				0.6499999761581421,
				0.8335409760475159,
				0.45813778042793274
			],
			"min":[
				-0.6499999761581421,
				0.3776393234729767,
				-0.45813778042793274
			],
			"type":"VEC3"
		},
		{
			"bufferView":9,
			"componentType":5126,
			"count":140,
			"type":"VEC3"
		},
		{
			"bufferView":10,
			"componentType":5126,
			"count":140,
			"type":"VEC2"
		},
		{
			"bufferView":11,
			"componentType":5123,
			"count":264,
			"type":"SCALAR"
		},
		{
			"bufferView":12,
			"componentType":5126,
			"count":172,
			"max":[
				0.6000000238418579,
				0.800000011920929,
				0.4000000059604645
			],
			"min":[
				-0.6000000238418579,
				0.05000000074505806,
				-0.4000000059604645
			],
			"type":"VEC3"
		},
		{
			"bufferView":13,
			"componentType":5126,
			"count":172,
			"type":"VEC3"
		},
		{
			"bufferView":14,
			"componentType":5126,
			"count":172,
			"type":"VEC2"
		},
		{
			"bufferView":15,
			"componentType":5123,
			"count":246,
			"type":"SCALAR"
		},
		{
			"bufferView":16,
			"componentType":5126,
			"count":12,
			"max":[
				0.07000000029802322,
				0.26999998092651367,
				0.3799999952316284
			],
			"min":[
				-0.07000000029802322,
				1.804778527019556e-16,
				-0.3799999952316284
			],
			"type":"VEC3"
		},
		{
			"bufferView":17,
			"componentType":5126,
			"count":12,
			"type":"VEC3"
		},
		{
			"bufferView":18,
			"componentType":5126,
			"count":12,
			"type":"VEC2"
		},
		{
			"bufferView":19,
			"componentType":5123,
			"count":30,
			"type":"SCALAR"
		}
	],
	"bufferViews":[
		{
			"buffer":0,
			"byteLength":3600,
			"byteOffset":0,
			"target":34962
		},
		{
			"buffer":0,
			"byteLength":3600,
			"byteOffset":3600,
			"target":34962
		},
		{
			"buffer":0,
			"byteLength":2400,
			"byteOffset":7200,
			"target":34962
		},
		{
			"buffer":0,
			"byteLength":1356,
			"byteOffset":9600,
			"target":34963
		},
		{
			"buffer":0,
			"byteLength":528,
			"byteOffset":10956,
			"target":34962
		},
		{
			"buffer":0,
			"byteLength":528,
			"byteOffset":11484,
			"target":34962
		},
		{
			"buffer":0,
			"byteLength":352,
			"byteOffset":12012,
			"target":34962
		},
		{
			"buffer":0,
			"byteLength":132,
			"byteOffset":12364,
			"target":34963
		},
		{
			"buffer":0,
			"byteLength":1680,
			"byteOffset":12496,
			"target":34962
		},
		{
			"buffer":0,
			"byteLength":1680,
			"byteOffset":14176,
			"target":34962
		},
		{
			"buffer":0,
			"byteLength":1120,
			"byteOffset":15856,
			"target":34962
		},
		{
			"buffer":0,
			"byteLength":528,
			"byteOffset":16976,
			"target":34963
		},
		{
			"buffer":0,
			"byteLength":2064,
			"byteOffset":17504,
			"target":34962
		},
		{
			"buffer":0,
			"byteLength":2064,
			"byteOffset":19568,
			"target":34962
		},
		{
			"buffer":0,
			"byteLength":1376,
			"byteOffset":21632,
			"target":34962
		},
		{
			"buffer":0,
			"byteLength":492,
			"byteOffset":23008,
			"target":34963
		},
		{
			"buffer":0,
			"byteLength":144,
			"byteOffset":23500,
			"target":34962
		},
		{
			"buffer":0,
			"byteLength":144,
			"byteOffset":23644,
			"target":34962
		},
		{
			"buffer":0,
			"byteLength":96,
			"byteOffset":23788,
			"target":34962
		},
		{
			"buffer":0,
			"byteLength":60,
			"byteOffset":23884,
			"target":34963
		}
	],
	"buffers":[
		{
			"byteLength":23944,
			"uri":"house_type09.bin"
		}
	]
}
