{
	"asset":{
		"generator":"Khronos glTF Blender I/O v4.1.63",
		"version":"2.0"
	},
	"scene":0,
	"scenes":[
		{
			"name":"Scene",
			"nodes":[
				0
			]
		}
	],
	"nodes":[
		{
			"mesh":0,
			"name":"house_type01"
		}
	],
	"materials":[
		{
			"name":"border.018",
			"pbrMetallicRoughness":{
				"baseColorFactor":[
					0.5607843399047852,
					0.5686274766921997,
					0.6000000238418579,
					1
				]
			}
		},
		{
			"name":"window.016",
			"pbrMetallicRoughness":{
				"baseColorFactor":[
					0.7372549176216125,
					0.886274516582489,
					1,
					1
				]
			}
		},
		{
			"name":"door.016",
			"pbrMetallicRoughness":{
				"baseColorFactor":[
					0.38823530077934265,
					0.4000000059604645,
					0.4470588266849518,
					1
				]
			}
		},
		{
			"name":"_defaultMat.018",
			"pbrMetallicRoughness":{
				"baseColorFactor":[
					0.9528301954269409,
					0.37477976083755493,
					0.2921413481235504,
					1
				]
			}
		},
		{
			"name":"roof.016",
			"pbrMetallicRoughness":{
				"baseColorFactor":[
					0.33725491166114807,
					0.7372549176216125,
					0.6000000238418579,
					1
				]
			}
		}
	],
	"meshes":[
		{
			"name":"Mesh house_type01",
			"primitives":[
				{
					"attributes":{
						"POSITION":0,
						"NORMAL":1,
						"TEXCOORD_0":2
					},
					"indices":3,
					"material":0
				},
				{
					"attributes":{
						"POSITION":4,
						"NORMAL":5,
						"TEXCOORD_0":6
					},
					"indices":7,
					"material":1
				},
				{
					"attributes":{
						"POSITION":8,
						"NORMAL":9,
						"TEXCOORD_0":10
					},
					"indices":11,
					"material":2
				},
				{
					"attributes":{
						"POSITION":12,
						"NORMAL":13,
						"TEXCOORD_0":14
					},
					"indices":15,
					"material":3
				},
				{
					"attributes":{
						"POSITION":16,
						"NORMAL":17,
						"TEXCOORD_0":18
					},
					"indices":19,
					"material":4
				}
			]
		}
	],
	"accessors":[
		{
			"bufferView":0,
			"componentType":5126,
			"count":304,
			"max":[
				1.25,
				0.6895000338554382,
				-0.04800000041723251
			],
			"min":[
				0.05000000074505806,
				0,
				-0.8579999208450317
			],
			"type":"VEC3"
		},
		{
			"bufferView":1,
			"componentType":5126,
			"count":304,
			"type":"VEC3"
		},
		{
			"bufferView":2,
			"componentType":5126,
			"count":304,
			"type":"VEC2"
		},
		{
			"bufferView":3,
			"componentType":5123,
			"count":684,
			"type":"SCALAR"
		},
		{
			"bufferView":4,
			"componentType":5126,
			"count":20,
			"max":[
				1.100000023841858,
				0.25,
				-0.07800000160932541
			],
			"min":[
				0.20000000298023224,
				0.07000000029802322,
				-0.8379999995231628
			],
			"type":"VEC3"
		},
		{
			"bufferView":5,
			"componentType":5126,
			"count":20,
			"type":"VEC3"
		},
		{
			"bufferView":6,
			"componentType":5126,
			"count":20,
			"type":"VEC2"
		},
		{
			"bufferView":7,
			"componentType":5123,
			"count":30,
			"type":"SCALAR"
		},
		{
			"bufferView":8,
			"componentType":5126,
			"count":36,
			"max":[
				1.1749999523162842,
				0.6744999885559082,
				-0.07800000160932541
			],
			"min":[
				0.125,
				1.804778527019556e-16,
				-0.8379999995231628
			],
			"type":"VEC3"
		},
		{
			"bufferView":9,
			"componentType":5126,
			"count":36,
			"type":"VEC3"
		},
		{
			"bufferView":10,
			"componentType":5126,
			"count":36,
			"type":"VEC2"
		},
		{
			"bufferView":11,
			"componentType":5123,
			"count":66,
			"type":"SCALAR"
		},
		{
			"bufferView":12,
			"componentType":5126,
			"count":78,
			"max":[
				1.25,
				0.699999988079071,
				-0.058000002056360245
			],
			"min":[
				0.05000000074505806,
				0.05000000074505806,
				-0.8579999208450317
			],
			"type":"VEC3"
		},
		{
			"bufferView":13,
			"componentType":5126,
			"count":78,
			"type":"VEC3"
		},
		{
			"bufferView":14,
			"componentType":5126,
			"count":78,
			"type":"VEC2"
		},
		{
			"bufferView":15,
			"componentType":5123,
			"count":102,
			"type":"SCALAR"
		},
		{
			"bufferView":16,
			"componentType":5126,
			"count":56,
			"max":[
				1.2999999523162842,
				0.737500011920929,
				0
			],
			"min":[
				0,
				0.3699999749660492,
				-0.9160000085830688
			],
			"type":"VEC3"
		},
		{
			"bufferView":17,
			"componentType":5126,
			"count":56,
			"type":"VEC3"
		},
		{
			"bufferView":18,
			"componentType":5126,
			"count":56,
			"type":"VEC2"
		},
		{
			"bufferView":19,
			"componentType":5123,
			"count":138,
			"type":"SCALAR"
		}
	],
	"bufferViews":[
		{
			"buffer":0,
			"byteLength":3648,
			"byteOffset":0,
			"target":34962
		},
		{
			"buffer":0,
			"byteLength":3648,
			"byteOffset":3648,
			"target":34962
		},
		{
			"buffer":0,
			"byteLength":2432,
			"byteOffset":7296,
			"target":34962
		},
		{
			"buffer":0,
			"byteLength":1368,
			"byteOffset":9728,
			"target":34963
		},
		{
			"buffer":0,
			"byteLength":240,
			"byteOffset":11096,
			"target":34962
		},
		{
			"buffer":0,
			"byteLength":240,
			"byteOffset":11336,
			"target":34962
		},
		{
			"buffer":0,
			"byteLength":160,
			"byteOffset":11576,
			"target":34962
		},
		{
			"buffer":0,
			"byteLength":60,
			"byteOffset":11736,
			"target":34963
		},
		{
			"buffer":0,
			"byteLength":432,
			"byteOffset":11796,
			"target":34962
		},
		{
			"buffer":0,
			"byteLength":432,
			"byteOffset":12228,
			"target":34962
		},
		{
			"buffer":0,
			"byteLength":288,
			"byteOffset":12660,
			"target":34962
		},
		{
			"buffer":0,
			"byteLength":132,
			"byteOffset":12948,
			"target":34963
		},
		{
			"buffer":0,
			"byteLength":936,
			"byteOffset":13080,
			"target":34962
		},
		{
			"buffer":0,
			"byteLength":936,
			"byteOffset":14016,
			"target":34962
		},
		{
			"buffer":0,
			"byteLength":624,
			"byteOffset":14952,
			"target":34962
		},
		{
			"buffer":0,
			"byteLength":204,
			"byteOffset":15576,
			"target":34963
		},
		{
			"buffer":0,
			"byteLength":672,
			"byteOffset":15780,
			"target":34962
		},
		{
			"buffer":0,
			"byteLength":672,
			"byteOffset":16452,
			"target":34962
		},
		{
			"buffer":0,
			"byteLength":448,
			"byteOffset":17124,
			"target":34962
		},
		{
			"buffer":0,
			"byteLength":276,
			"byteOffset":17572,
			"target":34963
		}
	],
	"buffers":[
		{
			"byteLength":17848,
			"uri":"house_type01.bin"
		}
	]
}
