{
	"asset":{
		"generator":"Khronos glTF Blender I/O v4.1.63",
		"version":"2.0"
	},
	"scene":0,
	"scenes":[
		{
			"name":"Scene",
			"nodes":[
				0
			]
		}
	],
	"nodes":[
		{
			"mesh":0,
			"name":"house_type14"
		}
	],
	"materials":[
		{
			"name":"border.012",
			"pbrMetallicRoughness":{
				"baseColorFactor":[
					0.5607843399047852,
					0.5686274766921997,
					0.6000000238418579,
					1
				]
			}
		},
		{
			"name":"window.010",
			"pbrMetallicRoughness":{
				"baseColorFactor":[
					0.7372549176216125,
					0.886274516582489,
					1,
					1
				]
			}
		},
		{
			"name":"door.010",
			"pbrMetallicRoughness":{
				"baseColorFactor":[
					0.38823530077934265,
					0.4000000059604645,
					0.4470588266849518,
					1
				]
			}
		},
		{
			"name":"_defaultMat.012",
			"pbrMetallicRoughness":{
				"baseColorFactor":[
					0.9528301954269409,
					0.37477976083755493,
					0.2921413481235504,
					1
				]
			}
		},
		{
			"name":"roof.010",
			"pbrMetallicRoughness":{
				"baseColorFactor":[
					0.33725491166114807,
					0.7372549176216125,
					0.6000000238418579,
					1
				]
			}
		}
	],
	"meshes":[
		{
			"name":"Mesh house_type14",
			"primitives":[
				{
					"attributes":{
						"POSITION":0,
						"NORMAL":1,
						"TEXCOORD_0":2
					},
					"indices":3,
					"material":0
				},
				{
					"attributes":{
						"POSITION":4,
						"NORMAL":5,
						"TEXCOORD_0":6
					},
					"indices":7,
					"material":1
				},
				{
					"attributes":{
						"POSITION":8,
						"NORMAL":9,
						"TEXCOORD_0":10
					},
					"indices":11,
					"material":2
				},
				{
					"attributes":{
						"POSITION":12,
						"NORMAL":13,
						"TEXCOORD_0":14
					},
					"indices":15,
					"material":3
				},
				{
					"attributes":{
						"POSITION":16,
						"NORMAL":17,
						"TEXCOORD_0":18
					},
					"indices":19,
					"material":4
				}
			]
		}
	],
	"accessors":[
		{
			"bufferView":0,
			"componentType":5126,
			"count":346,
			"max":[
				0.5959311127662659,
				0.699999988079071,
				0.4100000262260437
			],
			"min":[
				-0.6040688753128052,
				0,
				-0.4000000059604645
			],
			"type":"VEC3"
		},
		{
			"bufferView":1,
			"componentType":5126,
			"count":346,
			"type":"VEC3"
		},
		{
			"bufferView":2,
			"componentType":5126,
			"count":346,
			"type":"VEC2"
		},
		{
			"bufferView":3,
			"componentType":5123,
			"count":708,
			"type":"SCALAR"
		},
		{
			"bufferView":4,
			"componentType":5126,
			"count":36,
			"max":[
				0.4759311079978943,
				0.6499999761581421,
				0.3799999952316284
			],
			"min":[
				-0.5840688943862915,
				0.05000000074505806,
				-0.3799999952316284
			],
			"type":"VEC3"
		},
		{
			"bufferView":5,
			"componentType":5126,
			"count":36,
			"type":"VEC3"
		},
		{
			"bufferView":6,
			"componentType":5126,
			"count":36,
			"type":"VEC2"
		},
		{
			"bufferView":7,
			"componentType":5123,
			"count":54,
			"type":"SCALAR"
		},
		{
			"bufferView":8,
			"componentType":5126,
			"count":20,
			"max":[
				0.5259311199188232,
				0.26999998092651367,
				0.3799999952316284
			],
			"min":[
				-0.07406888157129288,
				1.804778527019556e-16,
				-0.3799999952316284
			],
			"type":"VEC3"
		},
		{
			"bufferView":9,
			"componentType":5126,
			"count":20,
			"type":"VEC3"
		},
		{
			"bufferView":10,
			"componentType":5126,
			"count":20,
			"type":"VEC2"
		},
		{
			"bufferView":11,
			"componentType":5123,
			"count":54,
			"type":"SCALAR"
		},
		{
			"bufferView":12,
			"componentType":5126,
			"count":191,
			"max":[
				0.5959311127662659,
				1,
				0.4000000059604645
			],
			"min":[
				-0.6040688753128052,
				0.05000000074505806,
				-0.4000000059604645
			],
			"type":"VEC3"
		},
		{
			"bufferView":13,
			"componentType":5126,
			"count":191,
			"type":"VEC3"
		},
		{
			"bufferView":14,
			"componentType":5126,
			"count":191,
			"type":"VEC2"
		},
		{
			"bufferView":15,
			"componentType":5123,
			"count":270,
			"type":"SCALAR"
		},
		{
			"bufferView":16,
			"componentType":5126,
			"count":128,
			"max":[
				0.6540688872337341,
				1.033540964126587,
				0.45813778042793274
			],
			"min":[
				-0.6540688872337341,
				0.3776393234729767,
				-0.45813778042793274
			],
			"type":"VEC3"
		},
		{
			"bufferView":17,
			"componentType":5126,
			"count":128,
			"type":"VEC3"
		},
		{
			"bufferView":18,
			"componentType":5126,
			"count":128,
			"type":"VEC2"
		},
		{
			"bufferView":19,
			"componentType":5123,
			"count":240,
			"type":"SCALAR"
		}
	],
	"bufferViews":[
		{
			"buffer":0,
			"byteLength":4152,
			"byteOffset":0,
			"target":34962
		},
		{
			"buffer":0,
			"byteLength":4152,
			"byteOffset":4152,
			"target":34962
		},
		{
			"buffer":0,
			"byteLength":2768,
			"byteOffset":8304,
			"target":34962
		},
		{
			"buffer":0,
			"byteLength":1416,
			"byteOffset":11072,
			"target":34963
		},
		{
			"buffer":0,
			"byteLength":432,
			"byteOffset":12488,
			"target":34962
		},
		{
			"buffer":0,
			"byteLength":432,
			"byteOffset":12920,
			"target":34962
		},
		{
			"buffer":0,
			"byteLength":288,
			"byteOffset":13352,
			"target":34962
		},
		{
			"buffer":0,
			"byteLength":108,
			"byteOffset":13640,
			"target":34963
		},
		{
			"buffer":0,
			"byteLength":240,
			"byteOffset":13748,
			"target":34962
		},
		{
			"buffer":0,
			"byteLength":240,
			"byteOffset":13988,
			"target":34962
		},
		{
			"buffer":0,
			"byteLength":160,
			"byteOffset":14228,
			"target":34962
		},
		{
			"buffer":0,
			"byteLength":108,
			"byteOffset":14388,
			"target":34963
		},
		{
			"buffer":0,
			"byteLength":2292,
			"byteOffset":14496,
			"target":34962
		},
		{
			"buffer":0,
			"byteLength":2292,
			"byteOffset":16788,
			"target":34962
		},
		{
			"buffer":0,
			"byteLength":1528,
			"byteOffset":19080,
			"target":34962
		},
		{
			"buffer":0,
			"byteLength":540,
			"byteOffset":20608,
			"target":34963
		},
		{
			"buffer":0,
			"byteLength":1536,
			"byteOffset":21148,
			"target":34962
		},
		{
			"buffer":0,
			"byteLength":1536,
			"byteOffset":22684,
			"target":34962
		},
		{
			"buffer":0,
			"byteLength":1024,
			"byteOffset":24220,
			"target":34962
		},
		{
			"buffer":0,
			"byteLength":480,
			"byteOffset":25244,
			"target":34963
		}
	],
	"buffers":[
		{
			"byteLength":25724,
			"uri":"house_type14.bin"
		}
	]
}
