{
	"asset":{
		"generator":"Khronos glTF Blender I/O v4.1.63",
		"version":"2.0"
	},
	"scene":0,
	"scenes":[
		{
			"name":"Scene",
			"nodes":[
				0
			]
		}
	],
	"nodes":[
		{
			"mesh":0,
			"name":"Rails"
		}
	],
	"meshes":[
		{
			"name":"Cube",
			"primitives":[
				{
					"attributes":{
						"POSITION":0,
						"NORMAL":1,
						"TEXCOORD_0":2
					},
					"indices":3
				}
			]
		}
	],
	"accessors":[
		{
			"bufferView":0,
			"componentType":5126,
			"count":97584,
			"max":[
				99.99223327636719,
				0.1578376591205597,
				1.1501359939575195
			],
			"min":[
				-0.06846033036708832,
				-0.19843876361846924,
				-129.23934936523438
			],
			"type":"VEC3"
		},
		{
			"bufferView":1,
			"componentType":5126,
			"count":97584,
			"type":"VEC3"
		},
		{
			"bufferView":2,
			"componentType":5126,
			"count":97584,
			"type":"VEC2"
		},
		{
			"bufferView":3,
			"componentType":5125,
			"count":277344,
			"type":"SCALAR"
		}
	],
	"bufferViews":[
		{
			"buffer":0,
			"byteLength":1171008,
			"byteOffset":0,
			"target":34962
		},
		{
			"buffer":0,
			"byteLength":1171008,
			"byteOffset":1171008,
			"target":34962
		},
		{
			"buffer":0,
			"byteLength":780672,
			"byteOffset":2342016,
			"target":34962
		},
		{
			"buffer":0,
			"byteLength":1109376,
			"byteOffset":3122688,
			"target":34963
		}
	],
	"buffers":[
		{
			"byteLength":4232064,
			"uri":"Rails.bin"
		}
	]
}
