{
	"asset":{
		"generator":"Khronos glTF Blender I/O v4.1.63",
		"version":"2.0"
	},
	"scene":0,
	"scenes":[
		{
			"name":"Scene",
			"nodes":[
				0
			]
		}
	],
	"nodes":[
		{
			"mesh":0,
			"name":"Ties"
		}
	],
	"meshes":[
		{
			"name":"Cube.001",
			"primitives":[
				{
					"attributes":{
						"POSITION":0,
						"NORMAL":1,
						"TEXCOORD_0":2
					},
					"indices":3
				}
			]
		}
	],
	"accessors":[
		{
			"bufferView":0,
			"componentType":5126,
			"count":6072,
			"max":[
				99.51670837402344,
				0.1563725769519806,
				1.1230870485305786
			],
			"min":[
				-1.198475956916809,
				-0.35567808151245117,
				-130.36878967285156
			],
			"type":"VEC3"
		},
		{
			"bufferView":1,
			"componentType":5126,
			"count":6072,
			"type":"VEC3"
		},
		{
			"bufferView":2,
			"componentType":5126,
			"count":6072,
			"type":"VEC2"
		},
		{
			"bufferView":3,
			"componentType":5123,
			"count":9108,
			"type":"SCALAR"
		}
	],
	"bufferViews":[
		{
			"buffer":0,
			"byteLength":72864,
			"byteOffset":0,
			"target":34962
		},
		{
			"buffer":0,
			"byteLength":72864,
			"byteOffset":72864,
			"target":34962
		},
		{
			"buffer":0,
			"byteLength":48576,
			"byteOffset":145728,
			"target":34962
		},
		{
			"buffer":0,
			"byteLength":18216,
			"byteOffset":194304,
			"target":34963
		}
	],
	"buffers":[
		{
			"byteLength":212520,
			"uri":"Ties.bin"
		}
	]
}
